<?xml version="1.0" encoding="UTF-8" standalone="no"?>
<!-- Created with Inkscape (http://www.inkscape.org/) -->

<svg
   width="294.7589"
   height="69.9711"
   viewBox="28.0939 77.4076 294.7589 69.9711"
   version="1.1"
   id="svg1"
   xml:space="preserve"
   inkscape:version="1.4.4 (dcaf3e7, 2026-05-05)"
   sodipodi:docname="Leinaro_Logo.svg"
   xmlns:inkscape="http://www.inkscape.org/namespaces/inkscape"
   xmlns:sodipodi="http://sodipodi.sourceforge.net/DTD/sodipodi-0.dtd"
   xmlns="http://www.w3.org/2000/svg"
   xmlns:svg="http://www.w3.org/2000/svg"><sodipodi:namedview
     id="namedview1"
     pagecolor="#ffffff"
     bordercolor="#000000"
     borderopacity="0.25"
     inkscape:showpageshadow="2"
     inkscape:pageopacity="0.0"
     inkscape:pagecheckerboard="0"
     inkscape:deskcolor="#d1d1d1"
     inkscape:document-units="mm"
     inkscape:zoom="0.68862935"
     inkscape:cx="368.12256"
     inkscape:cy="585.94656"
     inkscape:window-width="1920"
     inkscape:window-height="991"
     inkscape:window-x="-9"
     inkscape:window-y="-9"
     inkscape:window-maximized="1"
     inkscape:current-layer="layer1" /><defs
     id="defs1" /><g
     inkscape:label="Ebene 1"
     inkscape:groupmode="layer"
     id="layer1"><g
       id="g17"
       transform="translate(19.595084,19.979304)"><path
         style="fill:#c6d945"
         d="m 274.78129,125.23818 c 0.19099,-0.0764 0.41919,-0.067 0.50711,0.0209 0.0879,0.0879 -0.0684,0.15045 -0.34726,0.13897 -0.30823,-0.0127 -0.37092,-0.0754 -0.15985,-0.15986 z m -81.49167,-0.26458 c 0.19099,-0.0764 0.4192,-0.067 0.50712,0.0209 0.0879,0.0879 -0.0684,0.15045 -0.34727,0.13896 -0.30822,-0.0127 -0.37092,-0.0754 -0.15985,-0.15985 z M 68.323602,124.25542 c -3.628877,-0.9669 -5.125272,-1.61136 -7.737907,-3.33255 -4.221635,-2.78118 -7.568841,-7.13462 -9.168488,-11.92472 -2.388754,-7.15305 -1.199755,-15.684462 3.045918,-21.855335 6.310539,-9.172054 19.119129,-12.576336 29.869089,-7.938642 9.007008,3.885759 14.274363,12.580024 13.972974,23.063707 l -0.08367,2.91042 -17.148987,0.0681 -17.148986,0.0681 0.183456,0.59338 c 0.913266,2.9539 3.48305,5.71985 6.207145,6.68097 4.510544,1.59141 9.140859,0.67841 12.183294,-2.40229 0.780176,-0.78999 1.615587,-1.43635 1.85647,-1.43635 0.432516,0 6.569117,1.18941 10.163441,1.9699 1.018646,0.22119 1.942877,0.40423 2.053847,0.40676 0.390281,0.009 -1.642341,3.65548 -2.936226,5.26769 -3.000859,3.73914 -7.029961,6.3125 -12.090109,7.72186 -1.687715,0.47007 -2.980427,0.60593 -6.474387,0.68043 -3.944778,0.0841 -4.595178,0.0319 -6.746875,-0.54139 z M 84.430375,95.851738 C 83.839735,93.398575 81.492953,90.72932 78.83234,89.484472 77.480559,88.852 77.009477,88.776482 74.409019,88.775374 c -2.728496,-0.0012 -3.022469,0.05184 -4.703039,0.847883 -2.757513,1.306168 -4.910504,3.760778 -5.386591,6.141212 l -0.162975,0.814873 H 74.380986 84.605559 Z M 21.656532,123.95929 c -1.073867,-0.19444 -2.740742,-0.7398 -3.704166,-1.21191 -2.116868,-1.03733 -4.950735,-3.75407 -5.928371,-5.68334 -1.525202,-3.00984 -1.492002,-2.38626 -1.513394,-28.425413 -0.01082,-13.167867 -0.0149,-24.449536 -0.0091,-25.070377 l 0.01061,-1.1288 7.077604,0.07047 7.077605,0.07047 0.06754,24.143229 0.06754,24.143231 h 12.698608 12.698608 v 6.74688 6.74687 l -13.295312,-0.0239 c -9.853213,-0.0177 -13.800803,-0.11541 -15.247799,-0.37742 z m 80.126468,0.33516 c -0.0553,-0.35195 -0.0627,-6.70619 -0.0291,-24.870837 l 0.0395,-21.365104 h 6.74688 6.74687 v 23.151041 23.15104 h -6.74687 c -3.71078,0 -6.75155,-0.0298 -6.75727,-0.0661 z m 51.19741,-12.89844 c 0,-7.05776 0.0341,-9.94503 0.0758,-6.41615 0.0417,3.52888 0.0417,9.30341 0,12.83229 -0.0417,3.52888 -0.0758,0.64162 -0.0758,-6.41614 z m 13.75886,-0.79375 c 0,-7.49432 0.0339,-10.56018 0.0753,-6.81302 0.0414,3.74716 0.0414,9.87888 0,13.62604 -0.0414,3.74716 -0.0753,0.6813 -0.0753,-6.81302 z m 91.93202,7.73906 -0.64144,-0.7276 0.72761,0.64143 c 0.40018,0.35279 0.7276,0.68021 0.7276,0.7276 0,0.20751 -0.21426,0.0386 -0.81377,-0.64143 z m -75.32485,-16.99948 c 0,-0.50932 0.0545,-0.71768 0.121,-0.46302 0.0665,0.25466 0.0665,0.67138 0,0.92604 -0.0666,0.25466 -0.121,0.0463 -0.121,-0.46302 z m 117.74493,-0.39687 c 0.003,-0.58209 0.0571,-0.78906 0.1204,-0.45994 0.0633,0.32912 0.0609,0.80537 -0.005,1.05833 -0.0662,0.25297 -0.118,-0.0163 -0.11506,-0.59839 z m -60.25943,-6.482295 c 0.26339,-0.291041 0.53842,-0.529166 0.61118,-0.529166 0.0728,0 -0.0832,0.238125 -0.3466,0.529166 -0.26339,0.291042 -0.53842,0.529167 -0.61118,0.529167 -0.0728,0 0.0832,-0.238125 0.3466,-0.529167 z M 238.1152,79.116842 c 0,-0.509323 0.0545,-0.717682 0.121,-0.463021 0.0666,0.254662 0.0666,0.671381 0,0.926042 -0.0666,0.254662 -0.121,0.0463 -0.121,-0.463021 z m -47.20683,-2.032824 c 0.19099,-0.07643 0.4192,-0.06703 0.50712,0.02089 0.0879,0.08792 -0.0684,0.150452 -0.34727,0.138964 -0.30822,-0.0127 -0.37092,-0.07539 -0.15985,-0.159854 z m 2.11666,0 c 0.191,-0.07643 0.4192,-0.06703 0.50712,0.02089 0.0879,0.08792 -0.0684,0.150452 -0.34726,0.138964 -0.30823,-0.0127 -0.37092,-0.07539 -0.15986,-0.159854 z m -86.73372,-3.506261 c -2.35127,-0.717816 -4.66964,-2.807877 -5.2451,-4.728559 -0.17113,-0.571197 -0.30853,-1.679571 -0.30534,-2.463052 0.0213,-5.214983 6.08723,-8.537054 11.30919,-6.193576 2.89414,1.298813 4.36236,3.462067 4.40403,6.488856 0.0201,1.459799 -0.10041,1.939785 -0.79713,3.175 -0.98493,1.74617 -2.55282,3.017055 -4.39826,3.565092 -1.42541,0.423299 -3.84348,0.499355 -4.96739,0.156239 z"
         id="path20" /><path
         style="fill:#59595a"
         d="m 275.95537,125.22942 c 0.40019,-0.0606 1.05503,-0.0606 1.45521,0 0.40018,0.0606 0.0728,0.11022 -0.7276,0.11022 -0.80037,0 -1.12779,-0.0496 -0.72761,-0.11022 z m -84.2667,-0.26221 c 0.32912,-0.0633 0.80537,-0.0609 1.05833,0.005 0.25296,0.0662 -0.0163,0.118 -0.5984,0.11507 -0.58208,-0.003 -0.78905,-0.0571 -0.45993,-0.12041 z m 81.0917,0.005 c 0.25467,-0.0665 0.67138,-0.0665 0.92605,0 0.25466,0.0666 0.0463,0.121 -0.46303,0.121 -0.50932,0 -0.71768,-0.0545 -0.46302,-0.121 z m 6.35,0 c 0.25467,-0.0665 0.67138,-0.0665 0.92605,0 0.25466,0.0666 0.0463,0.121 -0.46303,0.121 -0.50932,0 -0.71768,-0.0545 -0.46302,-0.121 z m -90.22291,-0.26459 c 0.25466,-0.0665 0.67138,-0.0665 0.92604,0 0.25466,0.0666 0.0463,0.121 -0.46302,0.121 -0.50933,0 -0.71768,-0.0545 -0.46302,-0.121 z m 5.82587,-9.7e-4 c 0.25743,-0.0671 0.61461,-0.0627 0.79375,0.01 0.17913,0.0725 -0.0315,0.12736 -0.46806,0.12197 -0.43656,-0.005 -0.58313,-0.0647 -0.32569,-0.13178 z m 76.32725,0.008 c 0.1819,-0.0734 0.47956,-0.0734 0.66146,0 0.1819,0.0734 0.0331,0.13345 -0.33073,0.13345 -0.3638,0 -0.51263,-0.0601 -0.33073,-0.13345 z m 10.05417,0 c 0.1819,-0.0734 0.47956,-0.0734 0.66146,0 0.1819,0.0734 0.0331,0.13345 -0.33073,0.13345 -0.3638,0 -0.51263,-0.0601 -0.33073,-0.13345 z m -93.64597,-0.2701 c 0.191,-0.0764 0.4192,-0.067 0.50712,0.0209 0.0879,0.0879 -0.0684,0.15045 -0.34726,0.13897 -0.30823,-0.0127 -0.37092,-0.0754 -0.15986,-0.15986 z m 82.55001,0 c 0.19099,-0.0764 0.41919,-0.067 0.50711,0.0209 0.0879,0.0879 -0.0683,0.15045 -0.34726,0.13897 -0.30823,-0.0127 -0.37092,-0.0754 -0.15985,-0.15986 z m 12.7,0 c 0.19099,-0.0764 0.41919,-0.067 0.50711,0.0209 0.0879,0.0879 -0.0684,0.15045 -0.34726,0.13897 -0.30823,-0.0127 -0.37092,-0.0754 -0.15985,-0.15986 z m -154.66801,-0.28207 6.8105,-0.0753 0.0712,-12.89397 0.0712,-12.893976 0.0636,13.030726 0.0636,13.03073 -6.94531,-0.0615 -6.94531,-0.0615 z m 28.29731,6.5e-4 c 1.8468,-0.0454 4.94243,-0.0455 6.87917,-2.8e-4 1.93674,0.0453 0.42572,0.0824 -3.35782,0.0826 -3.78355,1.5e-4 -5.36815,-0.0369 -3.52135,-0.0823 z m 30.06236,0.0168 c 0.191,-0.0764 0.4192,-0.067 0.50712,0.0209 0.0879,0.0879 -0.0684,0.15045 -0.34727,0.13896 -0.30822,-0.0127 -0.37092,-0.0754 -0.15985,-0.15985 z m 18.83503,-2.34842 c 0,-1.84438 -0.0827,-2.47804 -0.30547,-2.34036 -0.18925,0.11696 -0.23364,0.0726 -0.11667,-0.11668 0.48025,-0.77706 0.68672,-0.11317 0.68672,2.20808 v 2.51354 h 6.61458 6.61459 V 101.20955 78.323092 h -6.605 -6.60501 l -0.0865,2.579688 -0.0865,2.579687 -0.0554,-2.711979 -0.0554,-2.711979 h 6.87916 6.87917 v 23.151041 23.15104 h -6.87917 -6.87916 z m 25.99267,2.33323 6.81038,-0.0776 0.0728,-12.23252 0.0728,-12.23252 -0.004,12.30312 -0.004,12.30313 -6.87916,0.007 -6.87917,0.007 z m 37.7223,0.0152 c 0.191,-0.0764 0.4192,-0.067 0.50712,0.0209 0.0879,0.0879 -0.0684,0.15045 -0.34727,0.13896 -0.30822,-0.0127 -0.37091,-0.0754 -0.15985,-0.15985 z m -44.33573,-23.16874 -0.0647,-22.952601 6.81302,0.06139 6.81302,0.06139 -6.67926,0.07544 -6.67926,0.07544 -0.0691,22.815771 -0.0691,22.81578 z m -25.17803,22.45928 c 0.0606,-0.053 0.4079,-0.23821 0.7717,-0.41147 0.6237,-0.29704 0.63214,-0.29153 0.14787,0.0965 -0.42148,0.33768 -1.28266,0.63269 -0.91957,0.31502 z m 3.54983,-2.2848 c 0.26339,-0.29104 0.53842,-0.52917 0.61118,-0.52917 0.0728,0 -0.0832,0.23813 -0.3466,0.52917 -0.26339,0.29104 -0.53842,0.52917 -0.61118,0.52917 -0.0728,0 0.0832,-0.23813 0.3466,-0.52917 z m -25.55232,-1.78594 -0.64143,-0.7276 0.7276,0.64143 c 0.40019,0.35279 0.72761,0.68021 0.72761,0.72761 0,0.2075 -0.21426,0.0386 -0.81378,-0.64144 z m 82.80086,0.26459 c -0.32911,-0.41965 -0.31975,-0.42901 0.0999,-0.0999 0.25466,0.19972 0.46302,0.40808 0.46302,0.46302 0,0.21776 -0.21727,0.0776 -0.56292,-0.36312 z m 33.76813,-1.38907 c 0.86401,-0.87312 1.63046,-1.5875 1.70322,-1.5875 0.0728,0 -0.57463,0.71438 -1.43864,1.5875 -0.86401,0.87313 -1.63047,1.5875 -1.70323,1.5875 -0.0728,0 0.57463,-0.71437 1.43865,-1.5875 z m -118.54998,-0.85989 -0.77711,-0.8599 0.8599,0.77711 c 0.80154,0.72437 0.98151,0.94268 0.7771,0.94268 -0.0455,0 -0.43248,-0.38695 -0.85989,-0.85989 z m 81.60685,-0.92604 c -0.32911,-0.41965 -0.31975,-0.429 0.0999,-0.0999 0.25466,0.19972 0.46302,0.40808 0.46302,0.46302 0,0.21776 -0.21727,0.0776 -0.56292,-0.36312 z m -82.81458,-0.52917 c -0.32911,-0.41964 -0.31975,-0.429 0.0999,-0.0999 0.44073,0.34564 0.58089,0.56291 0.36313,0.56291 -0.0549,0 -0.2633,-0.20836 -0.46302,-0.46302 z m 121.74208,0.0985 c 0,-0.0549 0.20836,-0.2633 0.46302,-0.46302 0.41965,-0.3291 0.429,-0.31975 0.0999,0.0999 -0.34565,0.44073 -0.56292,0.58088 -0.56292,0.36312 z m -123.03125,-2.01677 c -0.15576,-0.29104 -0.22367,-0.52917 -0.15091,-0.52917 0.0728,0 0.25973,0.23813 0.41549,0.52917 0.15576,0.29104 0.22367,0.52917 0.15091,0.52917 -0.0728,0 -0.25973,-0.23813 -0.41549,-0.52917 z m 102.58629,-1.77846 c 0.46969,-0.0584 1.30313,-0.0594 1.85208,-0.002 0.54895,0.0573 0.16465,0.1051 -0.85399,0.10627 -1.01865,0.001 -1.46779,-0.0457 -0.99809,-0.10414 z M 171.80837,111.7827 c -0.25532,-0.66534 -0.18,-0.83702 0.13191,-0.30065 0.15443,0.26557 0.22505,0.5386 0.15693,0.60672 -0.0681,0.0681 -0.1981,-0.0696 -0.28884,-0.30607 z m 21.45881,0.21615 c 0.4697,-0.0585 1.30313,-0.0594 1.85208,-0.002 0.54895,0.0573 0.16466,0.10509 -0.85399,0.10627 -1.01865,10e-4 -1.46779,-0.0457 -0.99809,-0.10414 z m 80.45577,0.0102 c 0.191,-0.0764 0.4192,-0.067 0.50712,0.0209 0.0879,0.0879 -0.0684,0.15045 -0.34727,0.13896 -0.30822,-0.0127 -0.37091,-0.0754 -0.15985,-0.15985 z m 5.29167,0 c 0.19099,-0.0764 0.4192,-0.067 0.50712,0.0209 0.0879,0.0879 -0.0684,0.15045 -0.34727,0.13896 -0.30822,-0.0127 -0.37092,-0.0754 -0.15985,-0.15985 z m -87.3125,-0.26459 c 0.19099,-0.0764 0.4192,-0.067 0.50712,0.0209 0.0879,0.0879 -0.0683,0.15046 -0.34727,0.13897 -0.30822,-0.0127 -0.37092,-0.0754 -0.15985,-0.15986 z m 89.47877,-0.45241 c 0,-0.0572 0.18478,-0.17489 0.41062,-0.26155 0.23546,-0.0904 0.34166,-0.046 0.24897,0.10399 -0.15538,0.2514 -0.65959,0.37185 -0.65959,0.15756 z m 1.5875,-0.78966 c 0,-0.0549 0.20836,-0.2633 0.46303,-0.46302 0.41964,-0.3291 0.429,-0.31975 0.0999,0.0999 -0.34564,0.44073 -0.56292,0.58088 -0.56292,0.36312 z m -13.38659,-0.76 -0.50403,-0.59531 0.59531,0.50403 c 0.55945,0.47366 0.71576,0.68659 0.50403,0.68659 -0.0502,0 -0.3181,-0.26789 -0.59531,-0.59531 z m -82.93598,-0.92604 -0.9118,-0.99219 0.99219,0.9118 c 0.9235,0.84868 1.11384,1.07258 0.91179,1.07258 -0.0442,0 -0.49069,-0.44649 -0.99218,-0.99219 z m 15.62466,0.0661 c 0.49365,-0.50933 0.95708,-0.92605 1.02984,-0.92605 0.0728,0 -0.2716,0.41672 -0.76526,0.92605 -0.49365,0.50932 -0.95709,0.92604 -1.02985,0.92604 -0.0728,0 0.27161,-0.41672 0.76527,-0.92604 z m 82.15312,0.39687 c 0.26339,-0.29104 0.53842,-0.52917 0.61118,-0.52917 0.0728,0 -0.0832,0.23813 -0.34659,0.52917 -0.26339,0.29104 -0.53842,0.52917 -0.61118,0.52917 -0.0728,0 0.0832,-0.23813 0.34659,-0.52917 z m -16.30562,-0.99219 c -0.32911,-0.41964 -0.31975,-0.429 0.0999,-0.0999 0.25467,0.19972 0.46302,0.40808 0.46302,0.46302 0,0.21776 -0.21727,0.0776 -0.56291,-0.36313 z m 17.23166,-0.16604 c 0,-0.0549 0.20836,-0.2633 0.46303,-0.46302 0.41964,-0.3291 0.429,-0.31975 0.0999,0.0999 -0.34564,0.44073 -0.56292,0.58088 -0.56292,0.36312 z M 170.34137,107.5375 c 0.0127,-0.30822 0.0754,-0.37092 0.15985,-0.15985 0.0764,0.191 0.067,0.4192 -0.0209,0.50712 -0.0879,0.0879 -0.15045,-0.0684 -0.13896,-0.34727 z m -0.2437,-1.16857 c 0,-0.36381 0.0601,-0.51264 0.13345,-0.33073 0.0734,0.1819 0.0734,0.47955 0,0.66145 -0.0734,0.18191 -0.13345,0.0331 -0.13345,-0.33072 z m 116.25961,-0.0776 c 0.0994,-0.26094 0.2473,-0.40778 0.32877,-0.32632 0.0815,0.0815 1.6e-4,0.29495 -0.18066,0.47443 -0.2613,0.25936 -0.29169,0.22897 -0.14811,-0.14811 z m -116.49925,-1.90682 c 0.003,-0.58208 0.0571,-0.78905 0.12041,-0.45994 0.0633,0.32912 0.0609,0.80537 -0.005,1.05834 -0.0662,0.25296 -0.118,-0.0163 -0.11507,-0.5984 z m 82.26047,0.39688 c 0,-0.36381 0.0601,-0.51264 0.13346,-0.33073 0.0734,0.1819 0.0734,0.47955 0,0.66145 -0.0734,0.18191 -0.13346,0.0331 -0.13346,-0.33072 z m 48.68334,-0.79375 c 0,-0.36381 0.06,-0.51264 0.13345,-0.33073 0.0734,0.1819 0.0734,0.47955 0,0.66145 -0.0734,0.18191 -0.13345,0.0331 -0.13345,-0.33072 z m -35.18959,-0.79375 c 0,-0.36381 0.0601,-0.51264 0.13346,-0.33073 0.0734,0.1819 0.0734,0.47955 0,0.66145 -0.0734,0.18191 -0.13346,0.0331 -0.13346,-0.33072 z m -82.28541,-0.52917 c 0,-0.3638 0.06,-0.51263 0.13345,-0.33073 0.0734,0.1819 0.0734,0.47956 0,0.66146 -0.0734,0.1819 -0.13345,0.0331 -0.13345,-0.33073 z m 22.00759,-1.5875 c 0,-1.091408 0.0467,-1.537892 0.10379,-0.99219 0.0571,0.5457 0.0571,1.43867 0,1.98438 -0.0571,0.5457 -0.10379,0.0992 -0.10379,-0.99219 z m -35.72572,-0.13229 c 0.001,-0.87313 0.0509,-1.198418 0.10977,-0.72287 0.0589,0.47555 0.0577,1.18992 -0.003,1.5875 -0.0604,0.39758 -0.10855,0.008 -0.10707,-0.86463 z m 117.99425,0.39687 c 0,-0.65484 0.0516,-0.92273 0.11466,-0.59531 0.0631,0.32742 0.0631,0.8632 0,1.19062 -0.0631,0.32743 -0.11466,0.0595 -0.11466,-0.59531 z M 183.34644,99.754342 c 0,-0.509323 0.0545,-0.717682 0.121,-0.463021 0.0665,0.254661 0.0665,0.67138 0,0.926039 -0.0666,0.25466 -0.121,0.0463 -0.121,-0.463018 z m 82.26581,0 c 0,-0.363802 0.0601,-0.51263 0.13346,-0.330729 0.0734,0.181901 0.0734,0.479557 0,0.661457 -0.0734,0.1819 -0.13346,0.0331 -0.13346,-0.330728 z m -27.25208,-0.79375 c 0,-0.363802 0.06,-0.51263 0.13345,-0.330729 0.0734,0.181901 0.0734,0.479557 0,0.661458 -0.0734,0.181901 -0.13345,0.03307 -0.13345,-0.330729 z m 48.92703,-0.15434 c 0.0127,-0.308225 0.0754,-0.37092 0.15985,-0.159853 0.0764,0.190996 0.067,0.419199 -0.0209,0.507118 -0.0879,0.08792 -0.15045,-0.06835 -0.13896,-0.347265 z M 152.87887,98.277085 c 0.0127,-0.308225 0.0754,-0.370919 0.15985,-0.159853 0.0764,0.190997 0.067,0.4192 -0.0209,0.507119 -0.0879,0.08792 -0.15045,-0.06835 -0.13896,-0.347266 z m 52.12291,0 c 0.0127,-0.308225 0.0754,-0.370919 0.15985,-0.159853 0.0764,0.190997 0.067,0.4192 -0.0209,0.507119 -0.0879,0.08792 -0.15046,-0.06835 -0.13897,-0.347266 z m 47.09584,0 c 0.0127,-0.308225 0.0754,-0.370919 0.15985,-0.159853 0.0764,0.190997 0.067,0.4192 -0.0209,0.507119 -0.0879,0.08792 -0.15045,-0.06835 -0.13896,-0.347266 z m 48.70422,-0.374826 c 0,-0.363803 0.06,-0.512631 0.13345,-0.33073 0.0734,0.181901 0.0734,0.479558 0,0.661459 -0.0734,0.181901 -0.13345,0.03307 -0.13345,-0.330729 z M 169.84289,97.505384 c 0.005,-0.436563 0.0647,-0.583125 0.13177,-0.325694 0.0671,0.257431 0.0627,0.614618 -0.01,0.79375 -0.0725,0.179131 -0.12736,-0.03149 -0.12197,-0.468056 z m -34.67022,-0.132292 c 0,-0.363802 0.06,-0.51263 0.13345,-0.330729 0.0734,0.181901 0.0734,0.479557 0,0.661458 -0.0734,0.181901 -0.13345,0.03307 -0.13345,-0.330729 z m 48.64966,0.132292 c 0,-0.145521 0.11542,-0.443178 0.25648,-0.661459 0.14106,-0.218281 0.25648,-0.277812 0.25648,-0.132291 0,0.14552 -0.11542,0.443177 -0.25648,0.661458 -0.14106,0.218281 -0.25648,0.277812 -0.25648,0.132292 z m -13.74555,-1.609549 c 0.0127,-0.308225 0.0754,-0.370919 0.15985,-0.159852 0.0764,0.190996 0.067,0.419199 -0.0209,0.507118 -0.0879,0.08792 -0.15046,-0.06835 -0.13897,-0.347266 z m 130.43959,0 c 0.0127,-0.308225 0.0754,-0.370919 0.15985,-0.159852 0.0764,0.190996 0.067,0.419199 -0.0209,0.507118 -0.0879,0.08792 -0.15045,-0.06835 -0.13896,-0.347266 z M 166.40331,95.124134 c 0.005,-0.436563 0.0647,-0.583125 0.13177,-0.325694 0.0671,0.257431 0.0627,0.614618 -0.01,0.79375 -0.0725,0.179131 -0.12736,-0.03149 -0.12197,-0.468056 z m 3.95436,-0.396875 c 0,-0.218282 0.10233,-0.635 0.22739,-0.926042 0.14333,-0.333544 0.22739,-0.38245 0.22739,-0.132292 0,0.218282 -0.10232,0.635 -0.22739,0.926042 -0.14333,0.333544 -0.22739,0.38245 -0.22739,0.132292 z m 98.25552,-1.058334 c 0.56839,-0.582083 1.09296,-1.058333 1.16572,-1.058333 0.0728,0 -0.33275,0.47625 -0.90114,1.058333 -0.56839,0.582084 -1.09297,1.058334 -1.16573,1.058334 -0.0728,0 0.33276,-0.47625 0.90115,-1.058334 z M 186.46006,93.27205 c 0.49366,-0.509323 0.95709,-0.926041 1.02985,-0.926041 0.0728,0 -0.27161,0.416718 -0.76527,0.926041 -0.49365,0.509323 -0.95708,0.926042 -1.02984,0.926042 -0.0728,0 0.27161,-0.416719 0.76526,-0.926042 z m 15.46568,-0.198437 -1.04589,-1.124479 1.12448,1.045884 c 1.04576,0.972662 1.24606,1.203074 1.04589,1.203074 -0.0432,0 -0.54925,-0.506016 -1.12448,-1.124479 z m -64.4136,-0.06615 c 0.49366,-0.509323 0.95709,-0.926042 1.02985,-0.926042 0.0728,0 -0.27161,0.416719 -0.76526,0.926042 -0.49366,0.509323 -0.95709,0.926042 -1.02985,0.926042 -0.0728,0 0.27161,-0.416719 0.76526,-0.926042 z m 28.59589,0.242535 c 0.0127,-0.308225 0.0754,-0.37092 0.15985,-0.159853 0.0764,0.190996 0.067,0.419199 -0.0209,0.507118 -0.0879,0.08792 -0.15046,-0.06835 -0.13897,-0.347265 z m -15.78873,-0.440973 -0.50403,-0.595312 0.59531,0.504028 c 0.55945,0.473662 0.71576,0.686597 0.50403,0.686597 -0.0502,0 -0.3181,-0.267891 -0.59531,-0.595313 z m -2.22382,-1.389062 c -0.3638,-0.207968 -0.53539,-0.382343 -0.3813,-0.387499 0.15409,-0.0052 0.51127,0.165431 0.79375,0.379084 0.65325,0.494094 0.4446,0.498351 -0.41245,0.0084 z m 40.48125,0.267097 c 0,-0.181044 1.62002,-0.984229 1.74105,-0.863193 0.0574,0.05741 -0.31084,0.302388 -0.81833,0.544396 -0.5075,0.242007 -0.92272,0.385466 -0.92272,0.318797 z M 245.9417,91.6361 c 0.191,-0.07643 0.4192,-0.06703 0.50712,0.02089 0.0879,0.08792 -0.0684,0.150452 -0.34727,0.138964 -0.30822,-0.0127 -0.37092,-0.07539 -0.15985,-0.159854 z m -74.55479,-0.216134 c 0,-0.145521 0.11542,-0.443177 0.25648,-0.661458 0.14107,-0.218282 0.25648,-0.277813 0.25648,-0.132292 0,0.145521 -0.11541,0.443177 -0.25648,0.661458 -0.14106,0.218282 -0.25648,0.277813 -0.25648,0.132292 z m 76.9265,-0.06178 c 0.62231,-0.05589 1.57481,-0.05511 2.11667,0.0017 0.54185,0.05685 0.0327,0.102583 -1.13148,0.101622 -1.16416,-9.61e-4 -1.6075,-0.04748 -0.98519,-0.103369 z M 141.67933,90.58328 c 0.1819,-0.0734 0.47956,-0.0734 0.66146,0 0.1819,0.0734 0.0331,0.133452 -0.33073,0.133452 -0.3638,0 -0.51263,-0.06005 -0.33073,-0.133452 z m 4.24987,-0.0055 c 0.191,-0.07643 0.4192,-0.06703 0.50712,0.02089 0.0879,0.08792 -0.0683,0.150453 -0.34727,0.138965 -0.30822,-0.0127 -0.37092,-0.07539 -0.15985,-0.159853 z m 128.05834,0 c 0.19099,-0.07643 0.41919,-0.06703 0.50711,0.02089 0.0879,0.08792 -0.0683,0.150453 -0.34726,0.138965 -0.30823,-0.0127 -0.37092,-0.07539 -0.15985,-0.159853 z m 5.02708,0 c 0.19099,-0.07643 0.4192,-0.06703 0.50712,0.02089 0.0879,0.08792 -0.0684,0.150453 -0.34727,0.138965 -0.30822,-0.0127 -0.37092,-0.07539 -0.15985,-0.159853 z M 143.66371,90.311541 c 0.25466,-0.06655 0.67138,-0.06655 0.92604,0 0.25466,0.06655 0.0463,0.121 -0.46302,0.121 -0.50933,0 -0.71769,-0.05445 -0.46302,-0.121 z m 48.03841,0.0016 c 0.19099,-0.07643 0.4192,-0.06703 0.50712,0.02089 0.0879,0.08792 -0.0683,0.150453 -0.34727,0.138964 -0.30822,-0.0127 -0.37092,-0.07539 -0.15985,-0.159852 z m 5.29166,0 c 0.191,-0.07643 0.4192,-0.06703 0.50712,0.02089 0.0879,0.08792 -0.0684,0.150453 -0.34726,0.138964 -0.30823,-0.0127 -0.37092,-0.07539 -0.15986,-0.159852 z m 78.8234,-0.01022 c 0.4697,-0.05845 1.30314,-0.05941 1.85208,-0.0021 0.54895,0.05728 0.16466,0.105098 -0.85399,0.106272 -1.01865,0.0012 -1.46779,-0.04569 -0.99809,-0.104138 z m -82.28542,-0.264583 c 0.4697,-0.05845 1.30314,-0.05941 1.85209,-0.0021 0.54895,0.05728 0.16465,0.105098 -0.854,0.106272 -1.01864,0.0012 -1.46778,-0.04569 -0.99809,-0.104138 z m 64.10122,-4.43925 c 0.34177,-0.363802 0.68094,-0.661459 0.7537,-0.661459 0.0728,0 -0.14734,0.297657 -0.48912,0.661459 -0.34177,0.363802 -0.68094,0.661458 -0.7537,0.661458 -0.0728,0 0.14734,-0.297656 0.48912,-0.661458 z m 37.81539,-0.06615 -0.64143,-0.727604 0.7276,0.641433 c 0.40018,0.352788 0.7276,0.68021 0.7276,0.727604 0,0.207506 -0.21425,0.03862 -0.81377,-0.641433 z M 176.53819,83.614759 c 0.86401,-0.873125 1.63046,-1.5875 1.70322,-1.5875 0.0728,0 -0.57463,0.714375 -1.43864,1.5875 -0.86402,0.873125 -1.63047,1.5875 -1.70323,1.5875 -0.0728,0 0.57463,-0.714375 1.43865,-1.5875 z m -14.57723,0.727604 -0.50402,-0.595313 0.59531,0.504028 c 0.32742,0.277216 0.59531,0.545106 0.59531,0.595313 0,0.211734 -0.21293,0.05542 -0.6866,-0.504028 z m 97.25952,-0.281228 c 0,-0.04553 0.38695,-0.432488 0.85989,-0.859896 l 0.8599,-0.777105 -0.77711,0.859896 c -0.72437,0.801543 -0.94268,0.981512 -0.94268,0.777105 z m 34.11122,-0.644814 -0.64143,-0.727604 0.7276,0.641433 c 0.40019,0.352788 0.72761,0.68021 0.72761,0.727604 0,0.207506 -0.21426,0.03862 -0.81378,-0.641433 z m -158.41153,-2.38125 0.0538,-2.315104 0.0895,2.206018 c 0.0826,2.035957 0.12435,2.178733 0.54146,1.852083 0.40719,-0.318882 0.41598,-0.308078 0.0888,0.109087 -0.66997,0.854277 -0.82781,0.476413 -0.77364,-1.852084 z m 69.11804,0.926042 -0.77711,-0.859896 0.8599,0.777106 c 0.47294,0.427408 0.85989,0.814361 0.85989,0.859895 0,0.204407 -0.21831,0.02444 -0.94268,-0.777105 z m 35.85663,-0.264583 c 1.09642,-1.168186 1.33397,-1.37824 1.33397,-1.179568 0,0.04246 -0.56555,0.608009 -1.25677,1.256771 l -1.25677,1.179568 z m -80.31513,0.264583 -0.50402,-0.595312 0.59531,0.504027 c 0.32742,0.277216 0.59531,0.545106 0.59531,0.595313 0,0.211734 -0.21293,0.05542 -0.6866,-0.504028 z m 18.94285,-0.03375 c 0,-0.05494 0.20836,-0.263301 0.46302,-0.463021 0.41965,-0.329107 0.429,-0.319749 0.0999,0.0999 -0.34565,0.440729 -0.56292,0.580887 -0.56292,0.363126 z m -41.53958,-0.529167 c 0,-0.05494 0.20836,-0.263301 0.46302,-0.46302 0.41964,-0.329108 0.429,-0.319749 0.0999,0.09989 -0.34564,0.44073 -0.56291,0.580887 -0.56291,0.363126 z m 65.31833,-0.892292 c -0.32911,-0.419644 -0.31975,-0.429003 0.0999,-0.0999 0.44073,0.345644 0.58088,0.562916 0.36312,0.562916 -0.0549,0 -0.2633,-0.20836 -0.46302,-0.463021 z m 61.1525,0.332668 c 0,-0.179237 2.1491,-1.248326 2.26879,-1.128632 0.0555,0.05547 -0.43232,0.35988 -1.08397,0.676477 -0.65165,0.316597 -1.18482,0.520066 -1.18482,0.452155 z m -107.15625,-0.92798 c -0.23847,-0.154109 -0.2711,-0.258097 -0.0818,-0.260532 0.17331,-0.0022 0.3887,0.115011 0.47864,0.260532 0.20301,0.328487 0.11142,0.328487 -0.39688,0 z m -17.19792,-0.113673 c 0,-0.07276 0.23813,-0.259733 0.52917,-0.415493 0.29104,-0.155761 0.52917,-0.223671 0.52917,-0.15091 0,0.07276 -0.23813,0.259732 -0.52917,0.415493 -0.29104,0.155761 -0.52917,0.22367 -0.52917,0.15091 z m 60.58959,-0.812368 c -0.3638,-0.207968 -0.53539,-0.382343 -0.3813,-0.3875 0.15409,-0.0052 0.51127,0.165432 0.79375,0.379085 0.65325,0.494093 0.4446,0.49835 -0.41245,0.0084 z m -71.56979,-0.661459 -6.87917,-0.145774 6.7974,-0.0594 c 4.31147,-0.03768 6.85721,0.03736 6.96093,0.205178 0.0899,0.145521 0.12673,0.237852 0.0818,0.205179 -0.045,-0.03267 -3.17738,-0.125003 -6.96092,-0.205179 z m 117.2931,0.08384 c 0.19099,-0.07643 0.41919,-0.06703 0.50711,0.02089 0.0879,0.08792 -0.0683,0.150453 -0.34726,0.138964 -0.30823,-0.0127 -0.37092,-0.07539 -0.15985,-0.159852 z m 23.54791,0 c 0.191,-0.07643 0.4192,-0.06703 0.50712,0.02089 0.0879,0.08792 -0.0684,0.150453 -0.34727,0.138964 -0.30822,-0.0127 -0.37091,-0.07539 -0.15985,-0.159852 z m -117.21042,-0.26458 c 0.191,-0.07643 0.4192,-0.06703 0.50712,0.02089 0.0879,0.08792 -0.0684,0.150453 -0.34726,0.138964 -0.30823,-0.0127 -0.37092,-0.07539 -0.15986,-0.159852 z m 94.72084,0 c 0.19099,-0.07643 0.4192,-0.06703 0.50712,0.02089 0.0879,0.08792 -0.0684,0.150453 -0.34727,0.138964 -0.30822,-0.0127 -0.37092,-0.07539 -0.15985,-0.159852 z m 23.54792,0 c 0.19099,-0.07643 0.41919,-0.06703 0.50711,0.02089 0.0879,0.08792 -0.0683,0.150453 -0.34726,0.138964 -0.30823,-0.0127 -0.37092,-0.07539 -0.15985,-0.159852 z M 143.796,77.883281 c 0.1819,-0.0734 0.47956,-0.0734 0.66146,0 0.1819,0.0734 0.0331,0.133452 -0.33073,0.133452 -0.3638,0 -0.51263,-0.06005 -0.33073,-0.133452 z m 6.35,0 c 0.1819,-0.0734 0.47956,-0.0734 0.66146,0 0.1819,0.0734 0.0331,0.133452 -0.33073,0.133452 -0.3638,0 -0.51263,-0.06005 -0.33073,-0.133452 z m 98.68958,-0.0185 c 0.61847,-0.0557 1.6305,-0.0557 2.24896,0 0.61846,0.0557 0.11245,0.10128 -1.12448,0.10128 -1.23693,0 -1.74294,-0.04558 -1.12448,-0.10128 z m 22.225,0.0185 c 0.1819,-0.0734 0.47956,-0.0734 0.66146,0 0.1819,0.0734 0.0331,0.133452 -0.33073,0.133452 -0.3638,0 -0.51263,-0.06005 -0.33073,-0.133452 z m 10.31875,0 c 0.1819,-0.0734 0.47956,-0.0734 0.66146,0 0.1819,0.0734 0.0331,0.133452 -0.33073,0.133452 -0.3638,0 -0.51263,-0.06005 -0.33073,-0.133452 z m -134.9434,-0.280314 c 0.4697,-0.05845 1.30313,-0.05941 1.85208,-0.0021 0.54895,0.05728 0.16465,0.105098 -0.85399,0.106272 -1.01865,0.0012 -1.46779,-0.04569 -0.99809,-0.104138 z m 41.03285,0.01022 c 0.191,-0.07643 0.4192,-0.06703 0.50712,0.02089 0.0879,0.08792 -0.0684,0.150453 -0.34726,0.138964 -0.30823,-0.0127 -0.37092,-0.07539 -0.15986,-0.159852 z m 8.45014,0.0055 c 0.1819,-0.0734 0.47955,-0.0734 0.66145,0 0.1819,0.0734 0.0331,0.133452 -0.33073,0.133452 -0.3638,0 -0.51263,-0.06005 -0.33072,-0.133452 z m 76.86649,-0.0081 c 0.25743,-0.06708 0.61462,-0.06267 0.79375,0.0098 0.17913,0.07248 -0.0315,0.127362 -0.46806,0.121969 -0.43656,-0.0054 -0.58312,-0.06469 -0.32569,-0.131773 z m 6.87917,0 c 0.25743,-0.06708 0.61461,-0.06267 0.79375,0.0098 0.17913,0.07248 -0.0315,0.127362 -0.46806,0.121969 -0.43656,-0.0054 -0.58313,-0.06469 -0.32569,-0.131773 z m -90.62175,-0.268359 c 0.32912,-0.06329 0.80537,-0.06088 1.05834,0.0053 0.25296,0.06622 -0.0163,0.118003 -0.5984,0.115067 -0.58208,-0.0029 -0.78906,-0.05712 -0.45994,-0.120406 z m 5.42591,0.0038 c 0.25743,-0.06708 0.61462,-0.06267 0.79375,0.0098 0.17913,0.07248 -0.0315,0.127362 -0.46805,0.12197 -0.43657,-0.0054 -0.58313,-0.06469 -0.3257,-0.131773 z m 81.35434,-0.008 c 0.47294,-0.05869 1.24685,-0.05869 1.71979,0 0.47295,0.05869 0.086,0.106712 -0.85989,0.106712 -0.94589,0 -1.33284,-0.04802 -0.8599,-0.106712 z m -84.00017,-0.256539 c 0.25743,-0.06708 0.61462,-0.06267 0.79375,0.0098 0.17913,0.07248 -0.0315,0.127362 -0.46806,0.12197 -0.43656,-0.0054 -0.58312,-0.06469 -0.32569,-0.131774 z"
         id="path19" /><path
         style="fill:#080807"
         d="m 272.60436,124.87957 c -10.05661,-1.58258 -17.24101,-7.83887 -19.78716,-17.23095 -0.86331,-3.18451 -0.86171,-9.156801 0.003,-12.392195 2.75126,-10.290298 11.15822,-16.971968 22.19697,-17.641661 10.45822,-0.634474 19.84884,4.555863 23.89775,13.208654 2.3751,5.075741 2.71951,12.147422 0.87777,18.023202 -1.21516,3.8768 -2.56159,6.08357 -5.51245,9.03479 -4.83832,4.8389 -9.80606,6.91946 -17.06842,7.1485 -1.67348,0.0528 -3.74699,-0.0149 -4.60778,-0.15034 z m 6.42953,-12.70566 c 5.64114,-1.30051 9.42313,-6.84871 8.53911,-12.526912 -0.94067,-6.042094 -7.12269,-10.403036 -13.01216,-9.179078 -3.54001,0.73569 -6.26954,2.83082 -7.84747,6.023547 -0.85591,1.731814 -0.9965,2.286657 -1.09351,4.315673 -0.17067,3.56978 0.94507,6.33275 3.51321,8.69998 2.67164,2.46263 6.41402,3.47064 9.90082,2.66679 z m -90.10924,12.46739 c -10.85367,-1.73041 -18.37512,-10.46406 -19.04021,-22.10884 -0.39755,-6.960784 1.78511,-13.419193 6.09936,-18.047749 3.97891,-4.268794 8.30529,-6.429434 14.04814,-7.0158 2.46901,-0.252095 3.27156,-0.231131 5.29166,0.138234 3.14429,0.574914 6.08302,2.029848 8.4138,4.165589 l 1.77266,1.624321 v -2.536981 -2.536982 h 6.61458 6.61459 v 22.886458 22.88646 h -6.61459 -6.61458 v -2.51354 c 0,-1.38245 -0.0514,-2.51355 -0.11426,-2.51355 -0.0628,0 -0.79628,0.65012 -1.62986,1.4447 -1.64911,1.57196 -4.16863,3.01671 -6.45796,3.70316 -1.68442,0.50506 -6.38509,0.7431 -8.38333,0.42452 z m 9.44166,-13.21579 c 5.8745,-2.24005 8.7892,-9.30646 6.15083,-14.912112 -2.3265,-4.943051 -7.60098,-7.494318 -12.76541,-6.174633 -3.38899,0.865999 -5.96287,3.004407 -7.51143,6.240577 -0.75943,1.587055 -0.82295,1.934212 -0.82295,4.497918 0,2.48422 0.0777,2.94411 0.73479,4.34714 1.43825,3.07115 3.83415,5.22016 6.97938,6.26017 1.98049,0.65488 5.13413,0.54195 7.23479,-0.25906 z M 121.37256,101.20955 V 78.323092 h 6.74688 6.74687 v 2.513542 c 0,1.382448 0.0702,2.513542 0.15589,2.513542 0.0857,0 0.67311,-0.53218 1.30527,-1.182623 2.66167,-2.738661 5.79998,-4.09939 9.92805,-4.304683 4.89418,-0.243391 9.28082,1.086988 13.08475,3.968336 2.97332,2.252195 5.37621,5.996978 6.55518,10.215938 0.53952,1.93071 0.56821,2.672816 0.65832,17.033756 l 0.0942,15.01511 h -6.75145 -6.75145 l -0.0774,-13.5599 -0.0774,-13.559893 -0.70061,-1.494357 c -1.7181,-3.664612 -5.62007,-5.67359 -9.7331,-5.011206 -3.07542,0.495283 -5.48621,2.351734 -6.86074,5.283185 l -0.69722,1.486961 -0.0796,13.4276 -0.0796,13.42761 h -6.73344 -6.73344 z m 103.38884,2e-5 0.069,-22.886478 h 6.61169 6.61168 v 2.787805 2.787806 l 1.61498,-1.726423 c 2.59763,-2.776865 5.85832,-4.104887 10.09283,-4.110631 l 2.31511,-0.0031 v 6.711548 6.711547 l -1.81793,-0.130072 c -5.18785,-0.371189 -9.44182,1.864616 -11.3688,5.975219 l -0.7039,1.501549 -0.0781,12.63385 -0.0781,12.63386 -6.66875,2e-5 -6.66876,2e-5 z"
         id="path18" /></g></g></svg>
